<svg xmlns="http://www.w3.org/2000/svg" viewBox="0 0 547.95 72.81"><defs><style>.cls-1{fill:#f2dbaf;}.cls-2{fill:#f7e7c9;}.cls-3{fill:#fff;}</style></defs><g id="Layer_2" data-name="Layer 2"><g id="Layer_1-2" data-name="Layer 1"><path class="cls-1" d="M26.94,7.44s-31.47,21.63,19,39.89,88.63-16.11,78.75-42c0,0,19.59,47.39-29.39,62S-24.95,56.19,26.94,7.44Z"/><ellipse class="cls-2" cx="69.49" cy="24.94" rx="49.08" ry="22.4"/><ellipse class="cls-1" cx="70.07" cy="23.23" rx="43.99" ry="20.08"/><ellipse class="cls-2" cx="68.7" cy="21.93" rx="36.35" ry="16.59"/><path d="M67.51,58.11c-16.31,0-29.71-4.08-40-12.18C11.57,33.38,8.38,14.9,7.89,11.16a.65.65,0,0,1,.58-.73h0a.66.66,0,0,1,.7.56c.46,3.54,3.54,21.66,19.14,33.94,13.57,10.67,32.75,14.18,57,10.43s39.17-11.73,44-23.65c5.42-13.42-3.82-27.86-5.79-30.7a.64.64,0,0,1,.14-.88h0a.65.65,0,0,1,.92.15c2.08,3,11.57,17.91,5.92,31.9-5,12.38-20.13,20.61-45,24.46A117.8,117.8,0,0,1,67.51,58.11Z"/><path d="M61.25,72.81c-2.58,0-5.1-.12-7.55-.34-11.87-1.1-22.16-4.88-30.59-11.23-10.71-8.06-16-16.79-15.63-26C8,20.42,22.9,9.41,26,7.25a.64.64,0,0,1,.9.19h0a.65.65,0,0,1-.18.88c-2.94,2-17.5,12.93-18,27-.31,8.72,4.78,17.09,15.13,24.88,18.67,14.06,43.28,12.42,60.64,8.58a153.33,153.33,0,0,0,33.1-11.62.65.65,0,0,1,.86.28h0a.65.65,0,0,1-.28.88A154.45,154.45,0,0,1,84.84,70,109.44,109.44,0,0,1,61.25,72.81Z"/><path d="M54.67,49.82A67.91,67.91,0,0,1,15.24,37.67,62,62,0,0,1,.11,22.94.65.65,0,0,1,.3,22h0a.65.65,0,0,1,.88.18A61.76,61.76,0,0,0,16,36.65c9.26,6.47,24.83,13.68,46.56,11.47a.65.65,0,0,1,.71.57h0a.64.64,0,0,1-.57.71A80.67,80.67,0,0,1,54.67,49.82Z"/><path d="M66.22,65.06A82.08,82.08,0,0,1,24.3,53.34,87.91,87.91,0,0,1,3.65,36.52a.64.64,0,0,1,.09-.92h0a.64.64,0,0,1,.89.08A86.35,86.35,0,0,0,25,52.26a80.07,80.07,0,0,0,56.83,10c14.48-2.81,24.93-9.19,31.06-18.94,9-14.32,5.86-31.68,5.12-35.11a.64.64,0,0,1,.47-.76h0a.65.65,0,0,1,.79.49c.78,3.6,4,21.36-5.28,36.06-6.33,10.07-17.07,16.64-31.91,19.53A82.76,82.76,0,0,1,66.22,65.06Z"/><path d="M33.82,35.92a.65.65,0,0,1-.92.12C30.5,34.1,21,25.86,22.91,17.68,24.37,11.4,32.19,6.87,46.16,4.21c16-3,32-4,45.1-2.83S113.41,6,116.47,11c2,3.22,1.53,6.89-1.37,10.94a.64.64,0,0,1-.91.14h0a.65.65,0,0,1-.14-.89c2.56-3.59,3-6.78,1.32-9.51-2.84-4.6-11.45-7.79-24.23-9C78.2,1.46,62.31,2.46,46.4,5.48,33,8,25.5,12.23,24.17,18,22.46,25.33,31.49,33.22,33.72,35a.64.64,0,0,1,.1.89Z"/><path d="M129.24,39.79a.64.64,0,0,1-.77-.48c-3.68-16.14-12.15-33-61.53-31.24C41.53,9,31.2,15.73,27,21.25a15,15,0,0,0-3.16,10.82.65.65,0,0,1-.49.71h0a.64.64,0,0,1-.79-.54A16,16,0,0,1,26,20.51c6.33-8.39,20.11-13,40.94-13.73C89.55,6,105.46,9,115.53,15.87c9.19,6.31,12.38,15.18,14.2,23.15a.64.64,0,0,1-.49.77Z"/><path d="M123.22,35.94a.65.65,0,0,1-.9.09c-13-10.33-34.81-12.17-50.92-11.88a211.43,211.43,0,0,0-32.11,3.14.66.66,0,0,1-.75-.51h0a.64.64,0,0,1,.52-.76,212.19,212.19,0,0,1,32.3-3.16c16.32-.3,38.45,1.59,51.76,12.16a.65.65,0,0,1,.1.92Z"/><path d="M104.62,50.75c-5.32,0-11-.11-16.81-.42-29.3-1.57-46-7.18-49.65-16.7a.64.64,0,0,1,.4-.85h0a.65.65,0,0,1,.8.39c8,20.76,83.81,16,91.58,15.41a.65.65,0,0,1,.69.59h0a.65.65,0,0,1-.6.7C128.36,50.06,117.73,50.75,104.62,50.75Z"/><path d="M35.11,60c-2.2,0-4.28-.08-6.21-.21A80.2,80.2,0,0,1,4.06,54.27a.64.64,0,0,1-.33-.87h0a.65.65,0,0,1,.84-.31,79,79,0,0,0,24.48,5.42c13.86,1,35.17-.94,58.18-15.32a.65.65,0,0,1,.89.2h0a.64.64,0,0,1-.21.89C67.79,56.86,48.94,60,35.11,60Z"/><path d="M82.6,59.69a77.81,77.81,0,0,1-15.71-1.58C53,55.25,40.24,48.48,28.84,38a.65.65,0,0,1,0-.92h0a.65.65,0,0,1,.91,0C55.27,60.54,83.11,60.43,102,56.17a110.06,110.06,0,0,0,35.08-14.89.65.65,0,0,1,.88.16h0a.65.65,0,0,1-.16.91,111.15,111.15,0,0,1-35.47,15.06A89.32,89.32,0,0,1,82.6,59.69Z"/><path d="M68.58,40.61c-16.64,0-26.17-4-31.37-7.61-5-3.48-7-7.12-7.63-8.6a.63.63,0,0,1,.41-.86h0a.65.65,0,0,1,.78.37A20,20,0,0,0,38.05,32c5.64,3.86,16.56,8.23,36.56,7.14,20.3-1.1,29.12-6.77,33-11.33A13.62,13.62,0,0,0,111,19.36a.64.64,0,0,1,.56-.63h0a.65.65,0,0,1,.72.65,14.79,14.79,0,0,1-3.75,9.27c-4,4.75-13.1,10.66-33.86,11.79Q71.48,40.6,68.58,40.61Z"/><polygon class="cls-3" points="173.33 20.3 164.7 20.3 164.7 5.3 156.45 5.3 156.45 20.3 147.83 20.3 147.83 27.8 156.45 27.8 156.45 56.3 164.7 56.3 164.7 27.8 173.33 27.8 173.33 20.3"/><path class="cls-3" d="M199.81,21.88a16.85,16.85,0,0,0-8.88-2.32,18.39,18.39,0,0,0-16.13,9.18,18.64,18.64,0,0,0-2.47,9.57,18.54,18.54,0,0,0,2.51,9.6,18.15,18.15,0,0,0,6.82,6.71,19.49,19.49,0,0,0,9.72,2.44,20.32,20.32,0,0,0,8-1.58,16.82,16.82,0,0,0,6.37-4.65l-5.25-5.32a10.74,10.74,0,0,1-4,2.85,13.36,13.36,0,0,1-5.14,1,11.41,11.41,0,0,1-5.7-1.39A9.46,9.46,0,0,1,181.78,44a11.49,11.49,0,0,1-1-2.63h26.85c.15-.75.26-1.44.34-2.06a16.64,16.64,0,0,0,.11-1.84,19,19,0,0,0-2.21-9.22A16.58,16.58,0,0,0,199.81,21.88Zm-19,12.75a10.35,10.35,0,0,1,.87-2.36,9.2,9.2,0,0,1,3.6-3.79,10.73,10.73,0,0,1,5.48-1.35,9.92,9.92,0,0,1,5.06,1.2A8.08,8.08,0,0,1,199,31.78a11.77,11.77,0,0,1,.94,2.85Z"/><path class="cls-3" d="M238.45,24.34a13.66,13.66,0,0,0-3.71-3,14.81,14.81,0,0,0-7.31-1.76,16,16,0,0,0-8.82,2.51,17.91,17.91,0,0,0-6.22,6.75,19.73,19.73,0,0,0-2.29,9.56,19.62,19.62,0,0,0,2.29,9.49,17.72,17.72,0,0,0,6.22,6.71,16.26,16.26,0,0,0,8.82,2.48,15,15,0,0,0,7.35-1.77,13.13,13.13,0,0,0,3.67-3v4h8.25v-36h-8.25Zm-2.29,21.84a9.52,9.52,0,0,1-7.38,3.08,10,10,0,0,1-5.29-1.39,9.72,9.72,0,0,1-3.6-3.86,11.93,11.93,0,0,1-1.31-5.7,11.93,11.93,0,0,1,1.31-5.7,9.75,9.75,0,0,1,3.6-3.87,10,10,0,0,1,5.29-1.38,10.18,10.18,0,0,1,5.36,1.38,9.58,9.58,0,0,1,3.56,3.87,12.27,12.27,0,0,1,1.28,5.7A11.19,11.19,0,0,1,236.16,46.18Z"/><path class="cls-3" d="M297.9,21.21a15,15,0,0,0-7-1.65,14.78,14.78,0,0,0-7,1.68,14.19,14.19,0,0,0-4.95,4.35,12.34,12.34,0,0,0-4.69-4.38,14.36,14.36,0,0,0-6.9-1.65,14.15,14.15,0,0,0-6.9,1.68A13,13,0,0,0,257,24V20.31H248.7v36H257V34.86A7.58,7.58,0,0,1,258,30.77a7,7,0,0,1,2.81-2.59,8.74,8.74,0,0,1,4-.9,8.06,8.06,0,0,1,5.55,2,7.06,7.06,0,0,1,2.25,5.59V56.31h8.25V34.86a7.5,7.5,0,0,1,1.05-4.09,6.92,6.92,0,0,1,2.85-2.59,8.74,8.74,0,0,1,4-.9,8.06,8.06,0,0,1,5.55,2,7.06,7.06,0,0,1,2.25,5.59V56.31h8.25V33.06a13.4,13.4,0,0,0-1.87-7.2A12.87,12.87,0,0,0,297.9,21.21Z"/><path class="cls-3" d="M333,21.62a12.81,12.81,0,0,0-7.2-2.06,14.17,14.17,0,0,0-7.17,1.83,13.47,13.47,0,0,0-3.56,3V20.31H306.8v36h8.25V35.53a8.58,8.58,0,0,1,1.05-4.27A7.5,7.5,0,0,1,319,28.33a8.55,8.55,0,0,1,4.27-1,7.92,7.92,0,0,1,5.89,2.33,8.11,8.11,0,0,1,2.29,5.92V56.31h8.25V33.73a13.89,13.89,0,0,0-1.8-6.79A14.85,14.85,0,0,0,333,21.62Z"/><path class="cls-3" d="M365.84,48.36a13.36,13.36,0,0,1-5.14,1,11.41,11.41,0,0,1-5.7-1.39A9.46,9.46,0,0,1,351.18,44a11.49,11.49,0,0,1-1-2.63h26.85c.15-.75.26-1.44.34-2.06a16.64,16.64,0,0,0,.11-1.84,19,19,0,0,0-2.21-9.22,16.58,16.58,0,0,0-6.08-6.38,16.88,16.88,0,0,0-8.88-2.32,18.39,18.39,0,0,0-16.13,9.18,18.64,18.64,0,0,0-2.47,9.57,18.54,18.54,0,0,0,2.51,9.6,18.15,18.15,0,0,0,6.82,6.71,19.49,19.49,0,0,0,9.72,2.44,20.36,20.36,0,0,0,8-1.58,16.82,16.82,0,0,0,6.37-4.65l-5.25-5.32A10.74,10.74,0,0,1,365.84,48.36ZM351.1,32.27a9.2,9.2,0,0,1,3.6-3.79,10.73,10.73,0,0,1,5.48-1.35,10,10,0,0,1,5.06,1.2,8.08,8.08,0,0,1,3.19,3.45,12.22,12.22,0,0,1,.94,2.85H350.23A10.35,10.35,0,0,1,351.1,32.27Z"/><path class="cls-3" d="M387.75,27.81a8,8,0,0,1,3.83-.75,10.59,10.59,0,0,1,4.65,1,10.48,10.48,0,0,1,3.6,2.93l5.25-5.25a14.31,14.31,0,0,0-5.59-4.62,18.29,18.29,0,0,0-7.69-1.53,17,17,0,0,0-7.09,1.35,10.47,10.47,0,0,0-4.57,3.82,10.59,10.59,0,0,0-1.61,5.93,9.3,9.3,0,0,0,1.35,5.25,9.66,9.66,0,0,0,3.48,3.18,22,22,0,0,0,4.5,1.84l4.5,1.31a13.11,13.11,0,0,1,3.49,1.54,2.89,2.89,0,0,1,1.35,2.55,2.62,2.62,0,0,1-1.42,2.4,8.54,8.54,0,0,1-4.2.83,13.53,13.53,0,0,1-5.52-1.09,12.35,12.35,0,0,1-4.31-3.26l-5.25,5.25A16.83,16.83,0,0,0,380.55,54a19.87,19.87,0,0,0,5.1,2.25,21.28,21.28,0,0,0,5.78.79q6.3,0,10-3.08a10.28,10.28,0,0,0,3.68-8.32,9.67,9.67,0,0,0-1.35-5.37,10.4,10.4,0,0,0-3.49-3.3,21.88,21.88,0,0,0-4.5-2c-1.58-.47-3.08-.91-4.5-1.31a13.93,13.93,0,0,1-3.49-1.42A2.59,2.59,0,0,1,386.4,30,2.36,2.36,0,0,1,387.75,27.81Z"/><polygon class="cls-3" points="423.95 5.3 415.7 5.3 415.7 20.3 407.08 20.3 407.08 27.8 415.7 27.8 415.7 56.3 423.95 56.3 423.95 27.8 432.58 27.8 432.58 20.3 423.95 20.3 423.95 5.3"/><rect class="cls-3" x="433.58" y="34.78" width="25.42" height="7.8"/><path class="cls-3" d="M489.35,25.84a13.66,13.66,0,0,0-3.71-3,14.81,14.81,0,0,0-7.31-1.76,16,16,0,0,0-8.82,2.51,17.91,17.91,0,0,0-6.22,6.75A19.73,19.73,0,0,0,461,39.88a19.62,19.62,0,0,0,2.29,9.49,17.72,17.72,0,0,0,6.22,6.71,16.26,16.26,0,0,0,8.82,2.48,15,15,0,0,0,7.35-1.77,13.13,13.13,0,0,0,3.67-3v4h8.25v-36h-8.25Zm-2.29,21.84a9.53,9.53,0,0,1-7.38,3.08,10,10,0,0,1-5.29-1.39,9.72,9.72,0,0,1-3.6-3.86,11.93,11.93,0,0,1-1.31-5.7,11.93,11.93,0,0,1,1.31-5.7,9.68,9.68,0,0,1,3.6-3.87,10,10,0,0,1,5.29-1.38A10.18,10.18,0,0,1,485,30.24a9.52,9.52,0,0,1,3.56,3.87,12.27,12.27,0,0,1,1.28,5.7A11.19,11.19,0,0,1,487.06,47.68Z"/><path class="cls-3" d="M527.69,23.57a16,16,0,0,0-8.81-2.51,14.88,14.88,0,0,0-7.28,1.76,13.69,13.69,0,0,0-3.75,3v-4H499.6v51h8.25v-19a13,13,0,0,0,3.68,3,15,15,0,0,0,7.35,1.77,16.23,16.23,0,0,0,8.81-2.48,17.72,17.72,0,0,0,6.22-6.71,19.62,19.62,0,0,0,2.29-9.49,19.73,19.73,0,0,0-2.29-9.56A17.91,17.91,0,0,0,527.69,23.57Zm-1.28,21.94a9.72,9.72,0,0,1-3.6,3.86,10,10,0,0,1-5.28,1.39,10.26,10.26,0,0,1-5.33-1.39,9.45,9.45,0,0,1-3.6-3.86,12.27,12.27,0,0,1-1.27-5.7,12.27,12.27,0,0,1,1.27-5.7,9.41,9.41,0,0,1,3.6-3.87,10.25,10.25,0,0,1,5.33-1.38,10,10,0,0,1,5.28,1.38,9.68,9.68,0,0,1,3.6,3.87,11.93,11.93,0,0,1,1.32,5.7A11.93,11.93,0,0,1,526.41,45.51Z"/><rect class="cls-3" x="538.95" y="21.81" width="8.25" height="36"/><path class="cls-3" d="M543.08,15.2a4.63,4.63,0,0,0,3.52-1.42A4.92,4.92,0,0,0,548,10.26a4.94,4.94,0,0,0-1.35-3.53,5,5,0,0,0-7,0,4.85,4.85,0,0,0-1.39,3.53,4.83,4.83,0,0,0,1.39,3.52A4.64,4.64,0,0,0,543.08,15.2Z"/></g></g></svg>